<mxfile host="Electron" modified="2024-05-22T03:25:05.079Z" agent="Mozilla/5.0 (Windows NT 10.0; Win64; x64) AppleWebKit/537.36 (KHTML, like Gecko) draw.io/24.4.0 Chrome/120.0.6099.109 Electron/28.1.0 Safari/537.36" etag="1PtuHYQvNaorwrzF67-z" version="24.4.0" type="device">
  <diagram id="C5RBs43oDa-KdzZeNtuy" name="Page-1">
    <mxGraphModel dx="1098" dy="820" grid="1" gridSize="10" guides="1" tooltips="1" connect="1" arrows="1" fold="1" page="1" pageScale="1" pageWidth="827" pageHeight="1169" math="0" shadow="0">
      <root>
        <mxCell id="WIyWlLk6GJQsqaUBKTNV-0" />
        <mxCell id="WIyWlLk6GJQsqaUBKTNV-1" parent="WIyWlLk6GJQsqaUBKTNV-0" />
        <mxCell id="QVmsnmxjFRf5C6LnryCY-5" style="edgeStyle=orthogonalEdgeStyle;rounded=0;orthogonalLoop=1;jettySize=auto;html=1;exitX=0.5;exitY=1;exitDx=0;exitDy=0;exitPerimeter=0;" edge="1" parent="WIyWlLk6GJQsqaUBKTNV-1" source="QVmsnmxjFRf5C6LnryCY-0" target="QVmsnmxjFRf5C6LnryCY-2">
          <mxGeometry relative="1" as="geometry" />
        </mxCell>
        <mxCell id="QVmsnmxjFRf5C6LnryCY-0" value="Начало алгоритма среднего времени ремонта" style="strokeWidth=2;html=1;shape=mxgraph.flowchart.terminator;whiteSpace=wrap;" vertex="1" parent="WIyWlLk6GJQsqaUBKTNV-1">
          <mxGeometry x="210" y="170" width="140" height="60" as="geometry" />
        </mxCell>
        <mxCell id="QVmsnmxjFRf5C6LnryCY-1" value="Конец алгоритма" style="strokeWidth=2;html=1;shape=mxgraph.flowchart.terminator;whiteSpace=wrap;" vertex="1" parent="WIyWlLk6GJQsqaUBKTNV-1">
          <mxGeometry x="210" y="600" width="140" height="60" as="geometry" />
        </mxCell>
        <mxCell id="QVmsnmxjFRf5C6LnryCY-6" style="edgeStyle=orthogonalEdgeStyle;rounded=0;orthogonalLoop=1;jettySize=auto;html=1;exitX=0.5;exitY=1;exitDx=0;exitDy=0;" edge="1" parent="WIyWlLk6GJQsqaUBKTNV-1" source="QVmsnmxjFRf5C6LnryCY-2" target="QVmsnmxjFRf5C6LnryCY-4">
          <mxGeometry relative="1" as="geometry" />
        </mxCell>
        <mxCell id="QVmsnmxjFRf5C6LnryCY-2" value="ДатаНачалаРемонта,&lt;div&gt;ДатаОкончанияРемонта&lt;/div&gt;" style="shape=parallelogram;html=1;strokeWidth=2;perimeter=parallelogramPerimeter;whiteSpace=wrap;rounded=1;arcSize=12;size=0.23;" vertex="1" parent="WIyWlLk6GJQsqaUBKTNV-1">
          <mxGeometry x="175" y="280" width="210" height="60" as="geometry" />
        </mxCell>
        <mxCell id="QVmsnmxjFRf5C6LnryCY-8" style="edgeStyle=orthogonalEdgeStyle;rounded=0;orthogonalLoop=1;jettySize=auto;html=1;" edge="1" parent="WIyWlLk6GJQsqaUBKTNV-1" source="QVmsnmxjFRf5C6LnryCY-3" target="QVmsnmxjFRf5C6LnryCY-1">
          <mxGeometry relative="1" as="geometry" />
        </mxCell>
        <mxCell id="QVmsnmxjFRf5C6LnryCY-3" value="Вывести кол-во дней" style="strokeWidth=2;html=1;shape=mxgraph.flowchart.document2;whiteSpace=wrap;size=0.25;" vertex="1" parent="WIyWlLk6GJQsqaUBKTNV-1">
          <mxGeometry x="230" y="480" width="100" height="60" as="geometry" />
        </mxCell>
        <mxCell id="QVmsnmxjFRf5C6LnryCY-7" style="edgeStyle=orthogonalEdgeStyle;rounded=0;orthogonalLoop=1;jettySize=auto;html=1;exitX=0.5;exitY=1;exitDx=0;exitDy=0;" edge="1" parent="WIyWlLk6GJQsqaUBKTNV-1" source="QVmsnmxjFRf5C6LnryCY-4" target="QVmsnmxjFRf5C6LnryCY-3">
          <mxGeometry relative="1" as="geometry">
            <Array as="points">
              <mxPoint x="280" y="460" />
              <mxPoint x="280" y="460" />
            </Array>
          </mxGeometry>
        </mxCell>
        <mxCell id="QVmsnmxjFRf5C6LnryCY-4" value="Вычесть из ДатыОкончанияРемонта ДатуНачалаРемонта" style="rounded=1;whiteSpace=wrap;html=1;absoluteArcSize=1;arcSize=14;strokeWidth=2;" vertex="1" parent="WIyWlLk6GJQsqaUBKTNV-1">
          <mxGeometry x="200" y="380" width="160" height="50" as="geometry" />
        </mxCell>
      </root>
    </mxGraphModel>
  </diagram>
</mxfile>
